<?xml version="1.0" encoding="utf-8"?>
<!-- Generator: Adobe Illustrator 16.0.0, SVG Export Plug-In . SVG Version: 6.00 Build 0)  -->
<!DOCTYPE svg PUBLIC "-//W3C//DTD SVG 1.1//EN" "http://www.w3.org/Graphics/SVG/1.1/DTD/svg11.dtd">
<svg version="1.1" id="Layer_1" xmlns="http://www.w3.org/2000/svg" xmlns:xlink="http://www.w3.org/1999/xlink" x="0px" y="0px"
	 width="75.429px" height="38.062px" viewBox="0 0 75.429 38.062" enable-background="new 0 0 75.429 38.062" xml:space="preserve">
<g>
	<path fill="#4C238C" d="M8.647,7.702c0-0.408-0.032-0.703-0.095-0.886C8.489,6.633,8.458,6.465,8.458,6.31
		c0-0.21,0.112-0.386,0.337-0.527s0.492-0.211,0.802-0.211c0.717,0,1.297,0.187,1.74,0.559c0.443,0.373,0.664,0.826,0.664,1.36
		v14.11c0.548-0.098,1.149-0.267,1.803-0.506c0.654-0.239,1.308-0.559,1.962-0.959c0.654-0.401,1.286-0.889,1.898-1.466
		c0.612-0.576,1.153-1.251,1.624-2.025c0.471-0.773,0.851-1.648,1.139-2.626c0.288-0.977,0.432-2.077,0.432-3.301
		c0-0.815-0.137-1.659-0.411-2.531c-0.274-0.872-0.7-1.667-1.276-2.383c-0.577-0.717-1.318-1.308-2.226-1.772
		c-0.907-0.464-1.993-0.696-3.258-0.696c-1.659,0-3.094,0.274-4.303,0.823C8.176,4.707,7.178,5.442,6.391,6.362
		C5.603,7.284,5.02,8.334,4.64,9.516c-0.38,1.181-0.569,2.404-0.569,3.67c0,0.957,0.081,1.761,0.242,2.415s0.341,1.188,0.538,1.603
		c0.197,0.415,0.379,0.721,0.548,0.917s0.267,0.31,0.295,0.337c0.239-0.07,0.408-0.042,0.506,0.084
		c0.099,0.126,0.148,0.295,0.148,0.506c0,0.197-0.067,0.493-0.201,0.886s-0.313,0.763-0.538,1.107
		c-0.225,0.345-0.485,0.605-0.78,0.781c-0.295,0.176-0.598,0.144-0.907-0.095c-0.168-0.154-0.429-0.436-0.78-0.844
		c-0.352-0.407-0.7-0.952-1.044-1.634c-0.345-0.682-0.65-1.504-0.917-2.468c-0.267-0.963-0.401-2.078-0.401-3.343
		c0-1.997,0.309-3.814,0.928-5.452c0.619-1.638,1.494-3.044,2.626-4.219c1.131-1.174,2.485-2.081,4.06-2.721
		c1.575-0.64,3.325-0.959,5.251-0.959c1.575,0,3.009,0.26,4.303,0.78c1.293,0.521,2.405,1.248,3.333,2.183
		c0.928,0.935,1.645,2.049,2.151,3.343c0.506,1.294,0.759,2.707,0.759,4.24c0,1.476-0.214,2.861-0.643,4.155
		c-0.429,1.294-1.016,2.475-1.761,3.543c-0.746,1.069-1.614,2.018-2.605,2.847c-0.991,0.83-2.056,1.505-3.195,2.025
		c0.717,0.408,1.311,0.904,1.782,1.487c0.471,0.584,0.872,1.209,1.202,1.877s0.619,1.368,0.865,2.099s0.496,1.452,0.749,2.162
		c0.253,0.71,0.541,1.396,0.865,2.057c0.323,0.661,0.731,1.251,1.223,1.771c0.056,0.07,0.13,0.123,0.222,0.158
		c0.091,0.035,0.182,0.07,0.274,0.105c0.091,0.035,0.169,0.077,0.232,0.126c0.063,0.049,0.095,0.116,0.095,0.201
		c0,0.21-0.12,0.446-0.359,0.707c-0.239,0.26-0.52,0.506-0.844,0.738c-0.323,0.232-0.65,0.425-0.98,0.58
		c-0.331,0.155-0.58,0.232-0.749,0.232c-0.21,0-0.4-0.084-0.569-0.253c-0.703-0.801-1.251-1.635-1.645-2.5
		c-0.394-0.865-0.725-1.722-0.991-2.573c-0.268-0.851-0.514-1.677-0.738-2.479c-0.225-0.801-0.517-1.54-0.875-2.214
		c-0.358-0.675-0.826-1.266-1.402-1.772c-0.577-0.506-1.357-0.893-2.341-1.16v5.99c0,0.365-0.12,0.622-0.358,0.77
		c-0.239,0.147-0.521,0.221-0.844,0.221c-0.253,0-0.506-0.035-0.759-0.105s-0.482-0.162-0.686-0.274
		c-0.204-0.113-0.373-0.243-0.506-0.39c-0.134-0.148-0.2-0.306-0.2-0.475V7.702z"/>
	<path fill="#4C238C" d="M35.518,17.763c0,0.801-0.137,1.624-0.411,2.467c-0.274,0.844-0.682,1.642-1.224,2.394
		c-0.541,0.752-1.209,1.427-2.003,2.025c-0.794,0.598-1.712,1.051-2.752,1.36c0.14,0.366,0.327,0.714,0.559,1.044
		c0.232,0.331,0.509,0.615,0.833,0.854c0.323,0.239,0.699,0.429,1.128,0.569c0.429,0.141,0.924,0.211,1.487,0.211
		c0.844,0,1.568-0.158,2.172-0.475s1.114-0.735,1.529-1.255c0.415-0.52,0.749-1.104,1.002-1.75c0.253-0.647,0.443-1.301,0.569-1.962
		c0.098-0.478,0.298-0.798,0.601-0.959c0.302-0.162,0.612-0.2,0.928-0.116c0.316,0.084,0.59,0.264,0.822,0.538
		c0.232,0.274,0.327,0.601,0.285,0.98c-0.056,0.436-0.151,0.936-0.285,1.498c-0.134,0.563-0.334,1.132-0.601,1.708
		c-0.267,0.577-0.608,1.143-1.023,1.698c-0.415,0.556-0.925,1.051-1.529,1.487c-0.604,0.436-1.315,0.787-2.13,1.054
		c-0.816,0.267-1.751,0.401-2.805,0.401c-0.984,0-1.938-0.193-2.858-0.58c-0.921-0.387-1.737-0.942-2.447-1.666
		s-1.28-1.617-1.708-2.679c-0.429-1.062-0.643-2.267-0.643-3.617c0-1.364,0.19-2.633,0.569-3.807c0.38-1.174,0.878-2.19,1.498-3.047
		c0.619-0.858,1.321-1.529,2.109-2.015c0.788-0.485,1.596-0.728,2.426-0.728c0.604,0,1.149,0.105,1.635,0.316
		c0.485,0.211,0.896,0.51,1.234,0.896c0.337,0.387,0.594,0.847,0.77,1.381C35.43,16.525,35.518,17.116,35.518,17.763z
		 M28.558,22.867c0,0.126,0.007,0.253,0.021,0.379c0.014,0.127,0.021,0.261,0.021,0.401c0.534-0.253,1.02-0.576,1.455-0.97
		c0.436-0.394,0.809-0.844,1.118-1.35c0.309-0.506,0.548-1.058,0.717-1.656c0.169-0.598,0.253-1.22,0.253-1.867
		c0-0.478-0.081-0.851-0.243-1.118s-0.383-0.401-0.665-0.401c-0.352,0-0.664,0.12-0.938,0.358c-0.274,0.239-0.513,0.552-0.717,0.938
		c-0.204,0.387-0.373,0.823-0.506,1.308c-0.134,0.485-0.243,0.974-0.327,1.466c-0.084,0.492-0.141,0.959-0.168,1.402
		C28.551,22.202,28.544,22.571,28.558,22.867z"/>
	<path fill="#4C238C" d="M50.62,28.688c0.436,0,0.812-0.155,1.128-0.464c0.316-0.309,0.591-0.696,0.823-1.16
		c0.232-0.464,0.422-0.967,0.569-1.508c0.147-0.541,0.271-1.051,0.369-1.529c0.098-0.45,0.243-0.777,0.432-0.981
		c0.19-0.204,0.397-0.306,0.623-0.306c0.168,0,0.341,0.053,0.517,0.158s0.337,0.242,0.485,0.411
		c0.148,0.169,0.267,0.358,0.359,0.569c0.091,0.211,0.137,0.422,0.137,0.633c0,0.028,0,0.063,0,0.105s-0.014,0.105-0.042,0.19
		c-0.183,0.717-0.432,1.469-0.749,2.257s-0.721,1.512-1.213,2.172c-0.492,0.661-1.086,1.209-1.782,1.645
		c-0.696,0.436-1.508,0.654-2.436,0.654c-0.759,0-1.42-0.162-1.982-0.485c-0.563-0.324-1.006-0.752-1.329-1.287
		c-0.436,0.492-0.959,0.91-1.571,1.255c-0.611,0.344-1.325,0.517-2.141,0.517c-0.844,0-1.585-0.168-2.225-0.506
		c-0.64-0.337-1.178-0.798-1.614-1.381c-0.436-0.583-0.763-1.272-0.98-2.067c-0.218-0.794-0.327-1.648-0.327-2.563
		c0-1.8,0.288-3.417,0.865-4.851s1.343-2.654,2.299-3.66c0.956-1.005,2.049-1.775,3.279-2.309c1.23-0.535,2.506-0.802,3.828-0.802
		c0.591,0,1.068,0.162,1.435,0.485c0.365,0.323,0.548,0.767,0.548,1.329c0,0.366-0.039,0.622-0.116,0.77
		c-0.077,0.147-0.221,0.221-0.432,0.221c-0.197,0-0.401-0.014-0.612-0.042s-0.429-0.042-0.654-0.042
		c-0.816,0-1.645,0.179-2.489,0.538c-0.844,0.358-1.606,0.907-2.289,1.645s-1.241,1.673-1.677,2.805
		c-0.436,1.132-0.654,2.478-0.654,4.039c0,1.139,0.218,2.014,0.654,2.626c0.436,0.611,1.034,0.917,1.793,0.917
		c0.59,0,1.083-0.222,1.476-0.665s0.71-0.966,0.949-1.571v-6.665c0-0.211-0.01-0.386-0.032-0.527
		c-0.021-0.14-0.042-0.26-0.063-0.358c-0.021-0.098-0.039-0.186-0.053-0.264c-0.014-0.077-0.021-0.151-0.021-0.221
		c0-0.225,0.108-0.404,0.327-0.538c0.218-0.133,0.481-0.2,0.791-0.2c0.717,0,1.287,0.187,1.708,0.559
		c0.422,0.373,0.633,0.819,0.633,1.339v7.129c0,0.239,0.028,0.475,0.084,0.707c0.056,0.232,0.141,0.443,0.253,0.633
		c0.112,0.19,0.264,0.345,0.454,0.464C50.145,28.628,50.367,28.688,50.62,28.688z"/>
	<path fill="#4C238C" d="M63.105,24.069c0.084-0.422,0.214-0.728,0.39-0.917s0.366-0.295,0.57-0.316
		c0.204-0.021,0.411,0.028,0.622,0.147c0.211,0.12,0.394,0.278,0.548,0.475c0.154,0.197,0.271,0.418,0.348,0.665
		c0.077,0.246,0.087,0.489,0.031,0.728c-0.197,0.577-0.478,1.252-0.843,2.025c-0.366,0.773-0.83,1.505-1.392,2.193
		c-0.563,0.689-1.224,1.272-1.983,1.75s-1.631,0.717-2.615,0.717c-0.83,0-1.561-0.137-2.193-0.411
		c-0.633-0.274-1.164-0.661-1.592-1.16c-0.429-0.499-0.752-1.097-0.97-1.793c-0.218-0.696-0.327-1.473-0.327-2.331V6.183
		c0-0.801,0.102-1.543,0.306-2.225c0.204-0.682,0.485-1.266,0.844-1.75c0.359-0.485,0.777-0.865,1.255-1.139
		c0.478-0.274,0.984-0.411,1.519-0.411c0.633,0,1.167,0.116,1.603,0.348s0.794,0.538,1.076,0.917
		c0.281,0.379,0.502,0.815,0.665,1.308c0.162,0.492,0.277,0.995,0.348,1.508c0.07,0.514,0.112,1.02,0.126,1.519
		c0.014,0.5,0.021,0.953,0.021,1.361c0,1.054-0.099,2.162-0.295,3.322s-0.446,2.303-0.749,3.427
		c-0.303,1.125-0.633,2.204-0.991,3.238c-0.359,1.033-0.704,1.951-1.034,2.752c-0.331,0.801-0.626,1.455-0.886,1.961
		c-0.26,0.506-0.44,0.801-0.538,0.886v2.51c0,0.872,0.183,1.585,0.548,2.141c0.366,0.555,0.949,0.833,1.751,0.833
		c0.492,0,0.952-0.151,1.381-0.454c0.429-0.302,0.809-0.682,1.139-1.139c0.331-0.457,0.608-0.956,0.833-1.498
		C62.845,25.057,63.007,24.547,63.105,24.069z M56.968,17.552c0.155-0.295,0.306-0.692,0.454-1.192
		c0.147-0.499,0.288-1.051,0.422-1.656c0.133-0.604,0.256-1.237,0.369-1.898c0.112-0.661,0.211-1.308,0.295-1.94
		c0.084-0.633,0.151-1.227,0.2-1.782s0.074-1.03,0.074-1.424c0-1.434-0.105-2.485-0.316-3.153c-0.211-0.667-0.492-1.001-0.844-1.001
		c-0.112,0-0.211,0.056-0.295,0.168c-0.084,0.113-0.155,0.257-0.211,0.433C57.059,4.282,57.021,4.472,57,4.675
		c-0.021,0.204-0.032,0.39-0.032,0.559V17.552z"/>
	<path fill="#4C238C" d="M72.618,24.069c0.084-0.422,0.214-0.728,0.39-0.917s0.366-0.295,0.57-0.316
		c0.204-0.021,0.411,0.028,0.622,0.147c0.211,0.12,0.394,0.278,0.548,0.475c0.154,0.197,0.271,0.418,0.348,0.665
		c0.077,0.246,0.087,0.489,0.031,0.728c-0.197,0.577-0.478,1.252-0.843,2.025c-0.366,0.773-0.83,1.505-1.392,2.193
		c-0.563,0.689-1.224,1.272-1.983,1.75s-1.631,0.717-2.615,0.717c-0.83,0-1.561-0.137-2.193-0.411
		c-0.633-0.274-1.164-0.661-1.592-1.16c-0.429-0.499-0.752-1.097-0.97-1.793c-0.218-0.696-0.327-1.473-0.327-2.331V6.183
		c0-0.801,0.102-1.543,0.306-2.225c0.204-0.682,0.485-1.266,0.844-1.75c0.359-0.485,0.777-0.865,1.255-1.139
		c0.478-0.274,0.984-0.411,1.519-0.411c0.633,0,1.167,0.116,1.603,0.348s0.794,0.538,1.076,0.917
		c0.281,0.379,0.502,0.815,0.665,1.308c0.162,0.492,0.277,0.995,0.348,1.508c0.07,0.514,0.112,1.02,0.126,1.519
		c0.014,0.5,0.021,0.953,0.021,1.361c0,1.054-0.099,2.162-0.295,3.322s-0.446,2.303-0.749,3.427
		c-0.303,1.125-0.633,2.204-0.991,3.238c-0.359,1.033-0.704,1.951-1.034,2.752c-0.331,0.801-0.626,1.455-0.886,1.961
		c-0.26,0.506-0.44,0.801-0.538,0.886v2.51c0,0.872,0.183,1.585,0.548,2.141c0.366,0.555,0.949,0.833,1.751,0.833
		c0.492,0,0.952-0.151,1.381-0.454c0.429-0.302,0.809-0.682,1.139-1.139c0.331-0.457,0.608-0.956,0.833-1.498
		C72.357,25.057,72.519,24.547,72.618,24.069z M66.48,17.552c0.155-0.295,0.306-0.692,0.454-1.192
		c0.147-0.499,0.288-1.051,0.422-1.656c0.133-0.604,0.256-1.237,0.369-1.898c0.112-0.661,0.211-1.308,0.295-1.94
		c0.084-0.633,0.151-1.227,0.2-1.782s0.074-1.03,0.074-1.424c0-1.434-0.105-2.485-0.316-3.153c-0.211-0.667-0.492-1.001-0.844-1.001
		c-0.112,0-0.211,0.056-0.295,0.168c-0.084,0.113-0.155,0.257-0.211,0.433c-0.057,0.176-0.095,0.366-0.116,0.569
		c-0.021,0.204-0.032,0.39-0.032,0.559V17.552z"/>
</g>
</svg>
